HIERARCHY
ROOT Hips
{
	OFFSET 0.000000 0.000000 0.000000
	CHANNELS 6 Xposition Yposition Zposition Xrotation Yrotation Zrotation
	JOINT LeftUpLeg_virtual
	{
		OFFSET 0.000000 0.000000 0.000000
		CHANNELS 3 Xrotation Yrotation Zrotation
		JOINT LeftUpLeg
		{
			OFFSET 15.427100 -6.655098 0.678600
			CHANNELS 3 Xrotation Yrotation Zrotation
			JOINT LeftLeg
			{
				OFFSET 4.081073 -39.591068 13.024000
				CHANNELS 3 Xrotation Yrotation Zrotation
				JOINT LeftFoot
				{
					OFFSET -4.081074 -37.707932 -15.979700
					CHANNELS 3 Xrotation Yrotation Zrotation
					JOINT LeftToeBase
					{
						OFFSET 5.346399 -15.068900 20.645000
						CHANNELS 3 Xrotation Yrotation Zrotation
						JOINT LeftToe_End
						{
							OFFSET 2.754700 0.931300 11.300900
							CHANNELS 3 Xrotation Yrotation Zrotation
							End Site
							{
								OFFSET 0 0 0
							}
						}
					}
				}
			}
		}
	}
	JOINT RightUpLeg_virtual
	{
		OFFSET 0.000000 0.000000 0.000000
		CHANNELS 3 Xrotation Yrotation Zrotation
		JOINT RightUpLeg
		{
			OFFSET -15.569500 -6.655098 0.678600
			CHANNELS 3 Xrotation Yrotation Zrotation
			JOINT RightLeg
			{
				OFFSET -4.081825 -39.591045 13.023800
				CHANNELS 3 Xrotation Yrotation Zrotation
				JOINT RightFoot
				{
					OFFSET 4.081824 -37.707954 -15.979600
					CHANNELS 3 Xrotation Yrotation Zrotation
					JOINT RightToeBase
					{
						OFFSET -5.346400 -15.068900 20.645000
						CHANNELS 3 Xrotation Yrotation Zrotation
						JOINT RightToe_End
						{
							OFFSET -2.754700 0.931300 11.300900
							CHANNELS 3 Xrotation Yrotation Zrotation
							End Site
							{
								OFFSET 0 0 0
							}
						}
					}
				}
			}
		}
	}
	JOINT Spine_virtual
	{
		OFFSET 0.000000 0.000000 0.000000
		CHANNELS 3 Xrotation Yrotation Zrotation
		JOINT Spine
		{
			OFFSET -0.279200 12.230698 -2.892100
			CHANNELS 3 Xrotation Yrotation Zrotation
			JOINT Spine1
			{
				OFFSET -0.232667 10.192268 -1.242267
				CHANNELS 3 Xrotation Yrotation Zrotation
				JOINT Spine1_split
				{
					OFFSET -0.232667 10.192268 -1.242267
					CHANNELS 3 Xrotation Yrotation Zrotation
					JOINT Spine2
					{
						OFFSET -0.232667 10.192268 -1.242267
						CHANNELS 3 Xrotation Yrotation Zrotation
						JOINT Neck_virtual
						{
							OFFSET 0.000000 0.000000 0.000000
							CHANNELS 3 Xrotation Yrotation Zrotation
							JOINT Neck
							{
								OFFSET -0.418800 17.814194 8.416900
								CHANNELS 3 Xrotation Yrotation Zrotation
								JOINT Head
								{
									OFFSET 0.000000 7.031097 3.806800
									CHANNELS 3 Xrotation Yrotation Zrotation
									JOINT HeadTop_End
									{
										OFFSET 0.000000 24.646606 12.978600
										CHANNELS 3 Xrotation Yrotation Zrotation
										End Site
										{
											OFFSET 0 0 0
										}
									}
								}
							}
						}
						JOINT LeftShoulder_virtual
						{
							OFFSET 0.000000 0.000000 0.000000
							CHANNELS 3 Xrotation Yrotation Zrotation
							JOINT LeftShoulder
							{
								OFFSET 8.476499 7.247704 -3.868750
								CHANNELS 3 Xrotation Yrotation Zrotation
								JOINT LeftShoulder_split
								{
									OFFSET 8.476499 7.247704 -3.868750
									CHANNELS 3 Xrotation Yrotation Zrotation
									JOINT LeftArm
									{
										OFFSET 9.308998 -2.777710 0.208600
										CHANNELS 3 Xrotation Yrotation Zrotation
										JOINT LeftForeArm
										{
											OFFSET 29.972298 0.000000 0.000000
											CHANNELS 3 Xrotation Yrotation Zrotation
											JOINT LeftHand
											{
												OFFSET 26.026505 0.000000 0.000000
												CHANNELS 3 Xrotation Yrotation Zrotation
												End Site
												{
													OFFSET 0 0 0
												}
											}
										}
									}
								}
							}
						}
						JOINT RightShoulder_virtual
						{
							OFFSET 0.000000 0.000000 0.000000
							CHANNELS 3 Xrotation Yrotation Zrotation
							JOINT RightShoulder
							{
								OFFSET -7.570500 7.247704 -3.868750
								CHANNELS 3 Xrotation Yrotation Zrotation
								JOINT RightShoulder_split
								{
									OFFSET -7.570500 7.247704 -3.868750
									CHANNELS 3 Xrotation Yrotation Zrotation
									JOINT RightArm
									{
										OFFSET -9.308998 -2.777710 0.208500
										CHANNELS 3 Xrotation Yrotation Zrotation
										JOINT RightForeArm
										{
											OFFSET -29.972300 0.000000 0.000000
											CHANNELS 3 Xrotation Yrotation Zrotation
											JOINT RightHand
											{
												OFFSET -26.026505 0.000000 0.000000
												CHANNELS 3 Xrotation Yrotation Zrotation
												End Site
												{
													OFFSET 0 0 0
												}
											}
										}
									}
								}
							}
						}
					}
				}
			}
		}
	}
}
MOTION
Frames: 11
Frame Time: 0.03333333
-8.191402 148.661987 -3.331253 0.000000 0.000000 0.000000 9.368210 -27.247633 3.120709 -128.838377 -35.420705 32.213675 108.028014 -23.601290 -7.665967 39.771963 -22.221281 -4.021074 -3.981743 -0.107327 3.931860 0.000000 0.000000 0.000000 10.426958 -27.969457 1.570073 -59.207235 32.181871 -81.372449 86.319958 37.727977 37.166126 -0.148955 25.219936 17.276941 3.037588 1.138675 3.705419 0.000000 0.000000 0.000000 9.953478 -24.425687 1.730561 30.000373 7.665205 3.150156 5.598830 1.323342 0.625428 -1.581582 1.638092 0.148399 0.000000 0.000000 0.000000 8.032033 1.199762 1.665042 7.075329 1.854588 2.073552 -2.733119 37.063888 -24.851819 0.000000 0.000000 0.000000 6.876449 1.763501 0.369747 0.729169 -4.143654 9.535604 2.401762 -0.618251 2.243792 -36.146403 19.308011 16.008654 -2.783052 -8.306923 -1.636828 0.000000 0.000000 0.000000 8.167813 1.750314 0.916777 -2.705923 -4.889933 -29.061106 4.366664 0.064261 -1.663345 -49.704349 10.538360 -10.092855 1.266451 22.296529 -1.583872 0.000000 0.000000 0.000000 
-8.672235 145.552795 -2.362896 0.000000 0.000000 0.000000 8.483016 -30.045644 2.286545 -133.814211 -32.744272 32.115819 114.032474 -21.218027 -5.627293 46.305189 -23.593201 3.243430 -2.570909 -0.386330 3.683729 0.000000 0.000000 0.000000 10.844018 -28.498182 0.793348 -56.965758 24.730049 -80.031792 83.827724 36.189587 37.793079 -2.737946 24.468444 16.182653 -0.304164 1.167294 3.280197 0.000000 0.000000 0.000000 10.286483 -23.126249 0.313179 29.063397 8.753280 3.722473 5.574525 1.681409 0.483167 -0.703130 1.641721 0.774194 0.000000 0.000000 0.000000 8.493859 1.093768 1.456550 7.982461 1.434024 2.076027 -2.599512 36.364118 -25.005247 0.000000 0.000000 0.000000 6.734739 1.844168 0.036738 0.732499 -4.130724 8.377948 1.653886 -1.139262 0.507552 -35.323983 16.670981 22.295348 -2.602715 -7.206257 -1.124076 0.000000 0.000000 0.000000 8.620497 1.766249 0.710584 -2.545829 -3.642898 -30.170288 3.196780 1.005784 -2.092370 -41.968220 6.074693 -18.546882 1.736152 22.845168 -1.905061 0.000000 0.000000 0.000000 
-9.151600 140.558563 -2.653706 0.000000 0.000000 0.000000 6.862714 -30.344372 0.486716 -133.436816 -29.580846 32.415852 117.188807 -18.282489 -3.431322 48.244252 -24.376645 8.349132 -3.974864 -0.764731 3.859881 0.000000 0.000000 0.000000 9.694741 -27.529487 -0.948881 -55.722374 16.267325 -72.595314 84.776417 33.830122 34.897021 -6.774428 20.780741 14.964231 -2.156681 1.237996 2.571548 0.000000 0.000000 0.000000 9.887810 -20.427644 -1.641620 27.572186 9.311323 4.366399 5.416965 1.925489 0.311745 0.565985 1.793663 1.016550 0.000000 0.000000 0.000000 8.672189 0.931437 1.125384 8.306675 1.139792 2.467970 -2.402448 35.374086 -24.546026 0.000000 0.000000 0.000000 6.512452 1.797463 -0.195238 0.642158 -3.905909 7.515408 0.967889 -2.073498 -1.329651 -34.018146 13.328802 26.568205 -2.219146 -5.778505 -0.509133 0.000000 0.000000 0.000000 8.761441 1.579353 0.408369 -1.815770 -1.497854 -29.438204 2.185148 2.390338 -2.318098 -35.242065 1.666304 -23.730179 1.522581 25.637762 -1.935534 0.000000 0.000000 0.000000 
-9.483373 134.407684 -3.313541 0.000000 0.000000 0.000000 4.594840 -27.628867 -2.106595 -128.430369 -26.696494 32.280615 116.708467 -15.161649 -1.670235 48.341545 -24.345371 10.694363 -8.000012 -1.102114 4.165220 0.000000 0.000000 0.000000 7.327295 -25.116907 -3.280115 -54.109773 7.778866 -60.224701 87.559412 30.428414 29.382572 -11.474349 15.333858 13.494773 -3.379332 1.284816 1.786025 0.000000 0.000000 0.000000 8.852709 -16.697511 -3.558792 25.527291 9.166441 5.011933 5.012350 2.041052 0.184569 1.034983 2.233866 0.696705 0.000000 0.000000 0.000000 8.460440 0.811101 0.799068 8.285847 0.989296 3.122987 -2.157964 34.312715 -23.640063 0.000000 0.000000 0.000000 5.994527 1.728074 -0.269303 0.426534 -3.548831 6.976224 0.415558 -2.973043 -2.424572 -32.891015 11.544112 28.406118 -1.693878 -3.533351 0.008041 0.000000 0.000000 0.000000 8.352999 1.295387 0.170368 -0.786963 0.836872 -27.171867 2.005560 3.335465 -2.197936 -31.741651 -2.604780 -24.500848 0.762146 29.198089 -1.821480 0.000000 0.000000 0.000000 
-9.377412 127.466431 -4.606007 0.000000 0.000000 0.000000 2.197813 -23.322331 -4.691924 -119.107038 -24.558381 31.153101 112.748098 -11.611283 -0.708412 47.858661 -21.806714 10.804463 -10.981108 -1.167819 3.248216 0.000000 0.000000 0.000000 4.672007 -21.244614 -5.516886 -50.393119 0.432140 -45.389530 88.911270 26.091282 23.054318 -16.216203 9.600807 11.581812 -4.273837 1.207269 1.230502 0.000000 0.000000 0.000000 6.834219 -13.345373 -5.087970 23.128259 8.372997 5.415902 4.353588 2.061410 0.141915 1.549179 2.353789 0.349076 0.000000 0.000000 0.000000 7.742147 0.802571 0.555347 8.185074 0.826374 3.682011 -1.913380 33.142141 -22.367179 0.000000 0.000000 0.000000 5.370460 1.677771 -0.135022 0.256089 -2.829579 6.599871 0.063585 -3.161381 -2.692886 -31.834914 12.696686 27.129687 -1.256357 -0.890544 0.222705 0.000000 0.000000 0.000000 7.427142 1.084268 0.037749 0.191352 2.694379 -23.966104 1.954346 3.935940 -1.761788 -31.326044 -7.761349 -21.337222 -0.349542 31.554422 -1.713870 0.000000 0.000000 0.000000 
-9.024674 119.892807 -5.539482 0.000000 0.000000 0.000000 0.298423 -18.045940 -6.513714 -105.414694 -22.432945 29.085148 105.129780 -6.866244 -1.133146 44.485760 -15.878870 10.178524 -9.410017 -0.752335 0.735198 0.000000 0.000000 0.000000 2.043796 -17.000103 -7.068153 -44.030101 -4.470923 -30.945367 86.654883 21.702269 16.796671 -19.934445 4.936934 9.965795 -5.404492 0.970343 1.012602 0.000000 0.000000 0.000000 4.311229 -10.782433 -5.926490 20.585195 7.142159 5.464279 3.642607 2.086047 0.164680 1.973159 2.397353 0.145461 0.000000 0.000000 0.000000 6.619703 0.904451 0.411525 7.993077 0.703242 3.955956 -1.369630 32.066280 -21.069110 0.000000 0.000000 0.000000 4.699819 1.649725 0.106337 0.108748 -1.597425 6.181260 -0.265915 -3.103634 -1.930729 -29.871914 17.639939 21.579834 -1.032670 1.325243 0.123751 0.000000 0.000000 0.000000 6.237184 0.995370 -0.045818 1.000698 3.684613 -20.266536 2.104805 3.494934 -1.756752 -31.970698 -14.445440 -14.456526 -1.469152 31.471681 -1.754380 0.000000 0.000000 0.000000 
-8.615364 111.973602 -6.741047 0.000000 0.000000 0.000000 -1.644488 -12.593995 -7.277326 -87.741437 -19.794066 26.627730 93.976921 -0.923507 -2.051818 35.930473 -8.319323 9.592440 -4.909498 -0.359995 -2.271861 0.000000 0.000000 0.000000 -0.736505 -12.498493 -7.551619 -36.593650 -6.107094 -20.221154 80.387993 18.618522 10.529414 -22.042357 2.220222 10.540159 -8.471570 0.568761 1.005329 0.000000 0.000000 0.000000 1.648135 -9.233519 -6.109262 18.373364 5.681601 5.029893 3.076741 2.087324 0.173628 1.861840 2.026587 0.402348 0.000000 0.000000 0.000000 5.348011 1.039259 0.294355 7.551844 0.590888 3.779093 -0.611736 31.161379 -19.854872 0.000000 0.000000 0.000000 4.067328 1.599931 0.275226 -0.017685 0.036795 5.521539 -0.869544 -2.685868 -1.014963 -25.943106 24.690195 10.583771 -0.940580 2.653978 -0.142740 0.000000 0.000000 0.000000 5.046279 0.969704 -0.115477 1.588940 3.640330 -16.842517 2.608158 2.790921 -2.013155 -30.435934 -22.517950 -3.676798 -2.135228 29.337834 -2.095213 0.000000 0.000000 0.000000 
-8.262066 103.601974 -8.051544 0.000000 0.000000 0.000000 -3.448743 -7.522647 -6.847852 -68.569089 -17.155965 22.562449 81.244055 4.754767 -1.716408 22.581959 -2.330674 8.584983 -1.932788 -0.350393 -4.193222 0.000000 0.000000 0.000000 -3.527162 -8.429195 -7.051347 -28.868198 -5.735221 -14.301059 71.241749 17.896948 4.577351 -22.876501 0.584362 13.694312 -13.192854 -0.056795 1.133027 0.000000 0.000000 0.000000 -0.752243 -8.418304 -5.644135 17.149895 4.227064 4.119355 2.823790 1.985206 0.093667 1.741413 1.634572 0.912608 0.000000 0.000000 0.000000 4.192044 1.100816 0.108911 6.471686 0.571532 3.258302 0.097228 30.413907 -18.778582 0.000000 0.000000 0.000000 3.712496 1.404568 0.260386 -0.075693 1.981280 4.805316 -1.441659 -2.233331 -0.506552 -19.097810 30.365949 -5.789396 -1.071768 2.252856 -0.464941 0.000000 0.000000 0.000000 4.256532 0.904032 -0.262004 2.013551 2.945398 -13.970038 2.943654 2.429820 -2.807063 -23.367332 -29.692953 11.961618 -2.238758 27.539210 -2.478756 0.000000 0.000000 0.000000 
-7.914459 94.709427 -9.522041 0.000000 0.000000 0.000000 -4.987989 -2.529096 -5.589676 -52.645968 -15.456407 17.105493 70.601282 7.755528 0.100355 8.270864 -0.082003 5.711127 -2.614075 -0.510187 -3.957504 0.000000 0.000000 0.000000 -6.517047 -4.885697 -5.937809 -21.046726 -5.335233 -12.419783 62.571636 19.323930 0.200079 -25.475233 -1.070086 16.664891 -15.958867 -0.870960 1.442747 0.000000 0.000000 0.000000 -2.519918 -7.461815 -4.636726 17.495642 2.948571 2.799618 3.093428 1.737304 -0.134649 1.076615 0.973388 1.253529 0.000000 0.000000 0.000000 3.485679 0.966277 -0.157294 4.395041 0.636529 2.686841 0.292992 29.901335 -17.864937 0.000000 0.000000 0.000000 3.602572 1.041612 -0.037637 -0.152159 3.594700 4.316228 -2.101539 -2.071190 -0.385138 -11.894677 31.430133 -24.617385 -1.238969 0.182414 -0.689372 0.000000 0.000000 0.000000 4.051584 0.700249 -0.472176 2.297544 2.210662 -11.827143 3.482551 2.497593 -3.524446 -11.203675 -31.773808 31.792437 -1.812675 27.619753 -2.701189 0.000000 0.000000 0.000000 
-7.747832 85.221649 -11.213024 0.000000 0.000000 0.000000 -6.486971 1.391125 -3.897426 -43.800412 -15.235659 11.832152 67.178872 7.546184 1.800950 -2.327988 -0.804603 0.483310 -5.957325 -0.763591 -2.350334 0.000000 0.000000 0.000000 -9.292360 -1.061559 -4.503065 -12.665187 -6.250366 -13.161750 56.721367 20.855513 -1.666541 -34.579335 -3.712323 14.627185 -13.462536 -1.665782 1.976803 0.000000 0.000000 0.000000 -4.006066 -6.262328 -3.289334 19.690196 1.903137 1.158453 3.915397 1.289261 -0.481342 0.555708 0.241319 1.272844 0.000000 0.000000 0.000000 3.306203 0.628661 -0.495228 1.325250 0.691719 2.268750 -0.576723 29.380216 -16.976971 0.000000 0.000000 0.000000 3.876256 0.536270 -0.527547 -0.224053 4.360441 4.288825 -2.502204 -1.544268 -0.572948 -8.975935 27.570808 -40.453561 -1.424690 -3.591390 -0.809215 0.000000 0.000000 0.000000 4.493569 0.375840 -0.659000 2.471451 2.017939 -10.515131 3.646628 3.178437 -3.913937 -0.019894 -26.836418 50.300389 -1.044574 30.396985 -2.679544 0.000000 0.000000 0.000000 
-7.479351 74.811310 -12.820480 0.000000 0.000000 0.000000 -7.538393 3.793621 -2.140348 -43.721858 -15.522643 7.015830 73.461574 6.518659 2.139376 -8.341246 -2.063902 -3.743738 -7.254649 -0.944072 -1.721719 0.000000 0.000000 0.000000 -11.586435 2.791913 -2.986543 -2.795301 -9.231374 -14.565570 56.869531 20.473934 -0.007563 -51.813904 -5.019214 3.148910 -4.990016 -2.157207 2.625895 0.000000 0.000000 0.000000 -5.794499 -5.388349 -1.837938 23.567395 1.100783 -0.726733 5.220233 0.789606 -0.835982 0.531041 -0.203901 0.970440 0.000000 0.000000 0.000000 3.693125 0.184198 -0.825234 -2.261363 0.700253 2.224169 -2.566384 28.705721 -16.197186 0.000000 0.000000 0.000000 4.602298 0.002839 -1.023101 -0.261619 4.040166 4.694572 -2.781113 -0.770542 -0.588732 -11.527858 20.757211 -50.808616 -1.472202 -8.881701 -0.828520 0.000000 0.000000 0.000000 5.474738 0.063347 -0.783675 2.542674 2.725464 -9.862032 3.032798 3.573918 -3.754534 4.587330 -17.822680 62.684765 -0.316272 35.497005 -2.377891 0.000000 0.000000 0.000000 
